<mxfile host="app.diagrams.net" modified="2024-03-30T06:30:23.278Z" agent="Mozilla/5.0 (X11; Linux x86_64) AppleWebKit/537.36 (KHTML, like Gecko) Chrome/123.0.0.0 Safari/537.36" etag="1NOe4mio1pLrA4yT0IIW" version="24.0.6" type="device">
  <diagram id="5IbY6chEuLYtdWxYGzNw" name="Page-1">
    <mxGraphModel dx="3064" dy="1893" grid="1" gridSize="10" guides="1" tooltips="1" connect="1" arrows="1" fold="1" page="1" pageScale="1" pageWidth="850" pageHeight="1100" math="0" shadow="0">
      <root>
        <mxCell id="0" />
        <mxCell id="1" parent="0" />
        <mxCell id="gwHCqsxIp7rP5MhEEpe_-1" value="API Gateway (Authentication)" style="rounded=0;whiteSpace=wrap;html=1;" parent="1" vertex="1">
          <mxGeometry x="170" y="160" width="210" height="140" as="geometry" />
        </mxCell>
        <mxCell id="gwHCqsxIp7rP5MhEEpe_-2" value="Authorization" style="rounded=0;whiteSpace=wrap;html=1;" parent="1" vertex="1">
          <mxGeometry x="550" y="20" width="120" height="60" as="geometry" />
        </mxCell>
        <mxCell id="gwHCqsxIp7rP5MhEEpe_-3" value="ServiceRegistry" style="rounded=0;whiteSpace=wrap;html=1;" parent="1" vertex="1">
          <mxGeometry x="183.52" y="20" width="120" height="60" as="geometry" />
        </mxCell>
        <mxCell id="gwHCqsxIp7rP5MhEEpe_-4" value="ReverseProxy (LoadBalancing, TLS Termination)" style="rounded=0;whiteSpace=wrap;html=1;" parent="1" vertex="1">
          <mxGeometry x="-30" y="200" width="120" height="60" as="geometry" />
        </mxCell>
        <mxCell id="gwHCqsxIp7rP5MhEEpe_-5" value="ReverseProxy (LoadBalancing, TLS Termination)" style="rounded=0;whiteSpace=wrap;html=1;" parent="1" vertex="1">
          <mxGeometry x="-20" y="210" width="120" height="60" as="geometry" />
        </mxCell>
        <mxCell id="gwHCqsxIp7rP5MhEEpe_-6" value="ReverseProxy (LoadBalancing, TLS Termination)" style="rounded=0;whiteSpace=wrap;html=1;" parent="1" vertex="1">
          <mxGeometry x="-10" y="220" width="120" height="60" as="geometry" />
        </mxCell>
        <mxCell id="gwHCqsxIp7rP5MhEEpe_-7" value="API Gateway (Authentication)" style="rounded=0;whiteSpace=wrap;html=1;" parent="1" vertex="1">
          <mxGeometry x="180" y="170" width="210" height="140" as="geometry" />
        </mxCell>
        <mxCell id="gwHCqsxIp7rP5MhEEpe_-8" value="Gateway (Rate Limiting, Whiltelisting, Auditing, Routing, Orchestration (somedesigns to avoid networlk hops))" style="rounded=0;whiteSpace=wrap;html=1;" parent="1" vertex="1">
          <mxGeometry x="190" y="180" width="210" height="140" as="geometry" />
        </mxCell>
        <mxCell id="gwHCqsxIp7rP5MhEEpe_-9" value="ServiceRegistry" style="rounded=0;whiteSpace=wrap;html=1;" parent="1" vertex="1">
          <mxGeometry x="193.52" y="30" width="120" height="60" as="geometry" />
        </mxCell>
        <mxCell id="gwHCqsxIp7rP5MhEEpe_-10" value="ServiceRegistry" style="rounded=0;whiteSpace=wrap;html=1;" parent="1" vertex="1">
          <mxGeometry x="203.52" y="40" width="120" height="60" as="geometry" />
        </mxCell>
        <mxCell id="gwHCqsxIp7rP5MhEEpe_-11" value="Authorization (Write API)" style="rounded=0;whiteSpace=wrap;html=1;" parent="1" vertex="1">
          <mxGeometry x="560" y="30" width="120" height="60" as="geometry" />
        </mxCell>
        <mxCell id="gwHCqsxIp7rP5MhEEpe_-13" value="User" style="rounded=0;whiteSpace=wrap;html=1;" parent="1" vertex="1">
          <mxGeometry x="465" y="490" width="120" height="60" as="geometry" />
        </mxCell>
        <mxCell id="gwHCqsxIp7rP5MhEEpe_-14" value="User" style="rounded=0;whiteSpace=wrap;html=1;" parent="1" vertex="1">
          <mxGeometry x="475" y="500" width="120" height="60" as="geometry" />
        </mxCell>
        <mxCell id="gwHCqsxIp7rP5MhEEpe_-15" value="User (Read API)" style="rounded=0;whiteSpace=wrap;html=1;" parent="1" vertex="1">
          <mxGeometry x="485" y="510" width="120" height="60" as="geometry" />
        </mxCell>
        <mxCell id="gwHCqsxIp7rP5MhEEpe_-16" value="MySQL" style="shape=cylinder3;whiteSpace=wrap;html=1;boundedLbl=1;backgroundOutline=1;size=15;" parent="1" vertex="1">
          <mxGeometry x="570" y="-130" width="60" height="80" as="geometry" />
        </mxCell>
        <mxCell id="gwHCqsxIp7rP5MhEEpe_-18" value="Redis (Cache)" style="shape=cylinder3;whiteSpace=wrap;html=1;boundedLbl=1;backgroundOutline=1;size=15;" parent="1" vertex="1">
          <mxGeometry x="490" y="-130" width="60" height="80" as="geometry" />
        </mxCell>
        <mxCell id="gwHCqsxIp7rP5MhEEpe_-22" value="MySQL" style="shape=cylinder3;whiteSpace=wrap;html=1;boundedLbl=1;backgroundOutline=1;size=15;" parent="1" vertex="1">
          <mxGeometry x="580" y="-120" width="60" height="80" as="geometry" />
        </mxCell>
        <mxCell id="gwHCqsxIp7rP5MhEEpe_-23" value="Redis (Cache)" style="shape=cylinder3;whiteSpace=wrap;html=1;boundedLbl=1;backgroundOutline=1;size=15;" parent="1" vertex="1">
          <mxGeometry x="500" y="-120" width="60" height="80" as="geometry" />
        </mxCell>
        <mxCell id="gwHCqsxIp7rP5MhEEpe_-24" value="MySQL" style="shape=cylinder3;whiteSpace=wrap;html=1;boundedLbl=1;backgroundOutline=1;size=15;" parent="1" vertex="1">
          <mxGeometry x="590" y="-110" width="60" height="80" as="geometry" />
        </mxCell>
        <mxCell id="gwHCqsxIp7rP5MhEEpe_-25" value="Redis (Cache)" style="shape=cylinder3;whiteSpace=wrap;html=1;boundedLbl=1;backgroundOutline=1;size=15;" parent="1" vertex="1">
          <mxGeometry x="510" y="-110" width="60" height="80" as="geometry" />
        </mxCell>
        <mxCell id="gwHCqsxIp7rP5MhEEpe_-55" value="Authorization" style="rounded=0;whiteSpace=wrap;html=1;" parent="1" vertex="1">
          <mxGeometry x="400" y="20" width="120" height="60" as="geometry" />
        </mxCell>
        <mxCell id="gwHCqsxIp7rP5MhEEpe_-56" value="Authorization" style="rounded=0;whiteSpace=wrap;html=1;" parent="1" vertex="1">
          <mxGeometry x="410" y="30" width="120" height="60" as="geometry" />
        </mxCell>
        <mxCell id="gwHCqsxIp7rP5MhEEpe_-57" value="Authorization (Read API)" style="rounded=0;whiteSpace=wrap;html=1;" parent="1" vertex="1">
          <mxGeometry x="420" y="40" width="120" height="60" as="geometry" />
        </mxCell>
        <mxCell id="gwHCqsxIp7rP5MhEEpe_-58" value="1" style="endArrow=classic;startArrow=classic;html=1;rounded=0;exitX=0.85;exitY=-0.067;exitDx=0;exitDy=0;exitPerimeter=0;entryX=0.855;entryY=1;entryDx=0;entryDy=-4.35;entryPerimeter=0;" parent="1" source="gwHCqsxIp7rP5MhEEpe_-2" target="gwHCqsxIp7rP5MhEEpe_-24" edge="1">
          <mxGeometry width="50" height="50" relative="1" as="geometry">
            <mxPoint x="660" y="-30" as="sourcePoint" />
            <mxPoint x="710" y="-80" as="targetPoint" />
          </mxGeometry>
        </mxCell>
        <mxCell id="gwHCqsxIp7rP5MhEEpe_-59" value="1" style="endArrow=classic;startArrow=classic;html=1;rounded=0;exitX=0.558;exitY=0;exitDx=0;exitDy=0;exitPerimeter=0;" parent="1" source="gwHCqsxIp7rP5MhEEpe_-55" target="gwHCqsxIp7rP5MhEEpe_-25" edge="1">
          <mxGeometry width="50" height="50" relative="1" as="geometry">
            <mxPoint x="660" y="-30" as="sourcePoint" />
            <mxPoint x="710" y="-80" as="targetPoint" />
          </mxGeometry>
        </mxCell>
        <mxCell id="gwHCqsxIp7rP5MhEEpe_-60" value="2" style="endArrow=classic;startArrow=classic;html=1;rounded=0;exitX=0.75;exitY=0;exitDx=0;exitDy=0;entryX=0;entryY=1;entryDx=0;entryDy=-15;entryPerimeter=0;" parent="1" source="gwHCqsxIp7rP5MhEEpe_-55" target="gwHCqsxIp7rP5MhEEpe_-22" edge="1">
          <mxGeometry width="50" height="50" relative="1" as="geometry">
            <mxPoint x="660" y="-30" as="sourcePoint" />
            <mxPoint x="710" y="-80" as="targetPoint" />
          </mxGeometry>
        </mxCell>
        <mxCell id="gwHCqsxIp7rP5MhEEpe_-61" value="2" style="endArrow=classic;startArrow=classic;html=1;rounded=0;exitX=0.5;exitY=0;exitDx=0;exitDy=0;entryX=0.855;entryY=1;entryDx=0;entryDy=-4.35;entryPerimeter=0;" parent="1" source="gwHCqsxIp7rP5MhEEpe_-2" target="gwHCqsxIp7rP5MhEEpe_-25" edge="1">
          <mxGeometry width="50" height="50" relative="1" as="geometry">
            <mxPoint x="660" y="-30" as="sourcePoint" />
            <mxPoint x="710" y="-80" as="targetPoint" />
          </mxGeometry>
        </mxCell>
        <mxCell id="gwHCqsxIp7rP5MhEEpe_-63" value="MySQL" style="shape=cylinder3;whiteSpace=wrap;html=1;boundedLbl=1;backgroundOutline=1;size=15;" parent="1" vertex="1">
          <mxGeometry x="580" y="-120" width="60" height="80" as="geometry" />
        </mxCell>
        <mxCell id="gwHCqsxIp7rP5MhEEpe_-64" value="Redis (Cache)" style="shape=cylinder3;whiteSpace=wrap;html=1;boundedLbl=1;backgroundOutline=1;size=15;" parent="1" vertex="1">
          <mxGeometry x="500" y="-120" width="60" height="80" as="geometry" />
        </mxCell>
        <mxCell id="gwHCqsxIp7rP5MhEEpe_-65" value="MySQL" style="shape=cylinder3;whiteSpace=wrap;html=1;boundedLbl=1;backgroundOutline=1;size=15;" parent="1" vertex="1">
          <mxGeometry x="590" y="-110" width="60" height="80" as="geometry" />
        </mxCell>
        <mxCell id="gwHCqsxIp7rP5MhEEpe_-66" value="Redis (Cache)" style="shape=cylinder3;whiteSpace=wrap;html=1;boundedLbl=1;backgroundOutline=1;size=15;" parent="1" vertex="1">
          <mxGeometry x="510" y="-110" width="60" height="80" as="geometry" />
        </mxCell>
        <mxCell id="gwHCqsxIp7rP5MhEEpe_-67" value="MySQL" style="shape=cylinder3;whiteSpace=wrap;html=1;boundedLbl=1;backgroundOutline=1;size=15;" parent="1" vertex="1">
          <mxGeometry x="600" y="-100" width="60" height="80" as="geometry" />
        </mxCell>
        <mxCell id="gwHCqsxIp7rP5MhEEpe_-68" value="Redis (Cache)" style="shape=cylinder3;whiteSpace=wrap;html=1;boundedLbl=1;backgroundOutline=1;size=15;" parent="1" vertex="1">
          <mxGeometry x="520" y="-100" width="60" height="80" as="geometry" />
        </mxCell>
        <mxCell id="gwHCqsxIp7rP5MhEEpe_-69" value="1" style="endArrow=classic;startArrow=classic;html=1;rounded=0;exitX=0.85;exitY=-0.067;exitDx=0;exitDy=0;exitPerimeter=0;entryX=0.855;entryY=1;entryDx=0;entryDy=-4.35;entryPerimeter=0;" parent="1" target="gwHCqsxIp7rP5MhEEpe_-67" edge="1">
          <mxGeometry width="50" height="50" relative="1" as="geometry">
            <mxPoint x="662" y="25.980000000000018" as="sourcePoint" />
            <mxPoint x="720" y="-70" as="targetPoint" />
          </mxGeometry>
        </mxCell>
        <mxCell id="gwHCqsxIp7rP5MhEEpe_-70" value="MySQL" style="shape=cylinder3;whiteSpace=wrap;html=1;boundedLbl=1;backgroundOutline=1;size=15;" parent="1" vertex="1">
          <mxGeometry x="545" y="610" width="60" height="80" as="geometry" />
        </mxCell>
        <mxCell id="gwHCqsxIp7rP5MhEEpe_-71" value="Redis (Cache)" style="shape=cylinder3;whiteSpace=wrap;html=1;boundedLbl=1;backgroundOutline=1;size=15;" parent="1" vertex="1">
          <mxGeometry x="465" y="610" width="60" height="80" as="geometry" />
        </mxCell>
        <mxCell id="gwHCqsxIp7rP5MhEEpe_-72" value="MySQL" style="shape=cylinder3;whiteSpace=wrap;html=1;boundedLbl=1;backgroundOutline=1;size=15;" parent="1" vertex="1">
          <mxGeometry x="555" y="620" width="60" height="80" as="geometry" />
        </mxCell>
        <mxCell id="gwHCqsxIp7rP5MhEEpe_-73" value="Redis (Cache)" style="shape=cylinder3;whiteSpace=wrap;html=1;boundedLbl=1;backgroundOutline=1;size=15;" parent="1" vertex="1">
          <mxGeometry x="475" y="620" width="60" height="80" as="geometry" />
        </mxCell>
        <mxCell id="gwHCqsxIp7rP5MhEEpe_-74" value="MySQL (Read Replica)" style="shape=cylinder3;whiteSpace=wrap;html=1;boundedLbl=1;backgroundOutline=1;size=15;" parent="1" vertex="1">
          <mxGeometry x="565" y="630" width="60" height="80" as="geometry" />
        </mxCell>
        <mxCell id="gwHCqsxIp7rP5MhEEpe_-75" value="Redis (Cache)" style="shape=cylinder3;whiteSpace=wrap;html=1;boundedLbl=1;backgroundOutline=1;size=15;" parent="1" vertex="1">
          <mxGeometry x="485" y="630" width="60" height="80" as="geometry" />
        </mxCell>
        <mxCell id="gwHCqsxIp7rP5MhEEpe_-77" value="1" style="endArrow=classic;startArrow=classic;html=1;rounded=0;exitX=0.7;exitY=0;exitDx=0;exitDy=0;exitPerimeter=0;entryX=0.25;entryY=1;entryDx=0;entryDy=0;" parent="1" source="gwHCqsxIp7rP5MhEEpe_-71" target="gwHCqsxIp7rP5MhEEpe_-15" edge="1">
          <mxGeometry width="50" height="50" relative="1" as="geometry">
            <mxPoint x="965" y="460" as="sourcePoint" />
            <mxPoint x="1015" y="410" as="targetPoint" />
          </mxGeometry>
        </mxCell>
        <mxCell id="gwHCqsxIp7rP5MhEEpe_-79" value="User" style="rounded=0;whiteSpace=wrap;html=1;" parent="1" vertex="1">
          <mxGeometry x="615" y="490" width="120" height="60" as="geometry" />
        </mxCell>
        <mxCell id="gwHCqsxIp7rP5MhEEpe_-80" value="User" style="rounded=0;whiteSpace=wrap;html=1;" parent="1" vertex="1">
          <mxGeometry x="625" y="500" width="120" height="60" as="geometry" />
        </mxCell>
        <mxCell id="gwHCqsxIp7rP5MhEEpe_-81" value="User (Write API)" style="rounded=0;whiteSpace=wrap;html=1;" parent="1" vertex="1">
          <mxGeometry x="635" y="510" width="120" height="60" as="geometry" />
        </mxCell>
        <mxCell id="gwHCqsxIp7rP5MhEEpe_-82" value="1" style="endArrow=classic;startArrow=classic;html=1;rounded=0;exitX=0.855;exitY=0;exitDx=0;exitDy=4.35;exitPerimeter=0;entryX=0.392;entryY=1.033;entryDx=0;entryDy=0;entryPerimeter=0;" parent="1" source="gwHCqsxIp7rP5MhEEpe_-70" target="gwHCqsxIp7rP5MhEEpe_-81" edge="1">
          <mxGeometry width="50" height="50" relative="1" as="geometry">
            <mxPoint x="965" y="550" as="sourcePoint" />
            <mxPoint x="1015" y="500" as="targetPoint" />
          </mxGeometry>
        </mxCell>
        <mxCell id="gwHCqsxIp7rP5MhEEpe_-83" value="2" style="endArrow=classic;startArrow=classic;html=1;rounded=0;entryX=0.642;entryY=1.017;entryDx=0;entryDy=0;entryPerimeter=0;exitX=0;exitY=0.5;exitDx=0;exitDy=0;exitPerimeter=0;" parent="1" source="gwHCqsxIp7rP5MhEEpe_-74" target="gwHCqsxIp7rP5MhEEpe_-15" edge="1">
          <mxGeometry width="50" height="50" relative="1" as="geometry">
            <mxPoint x="965" y="550" as="sourcePoint" />
            <mxPoint x="1015" y="500" as="targetPoint" />
          </mxGeometry>
        </mxCell>
        <mxCell id="gwHCqsxIp7rP5MhEEpe_-84" value="" style="endArrow=classic;startArrow=classic;html=1;rounded=0;exitX=0.683;exitY=0.025;exitDx=0;exitDy=0;exitPerimeter=0;entryX=0.067;entryY=0.983;entryDx=0;entryDy=0;entryPerimeter=0;" parent="1" source="gwHCqsxIp7rP5MhEEpe_-73" target="gwHCqsxIp7rP5MhEEpe_-81" edge="1">
          <mxGeometry width="50" height="50" relative="1" as="geometry">
            <mxPoint x="965" y="550" as="sourcePoint" />
            <mxPoint x="1015" y="500" as="targetPoint" />
          </mxGeometry>
        </mxCell>
        <mxCell id="gwHCqsxIp7rP5MhEEpe_-85" value="2" style="edgeLabel;html=1;align=center;verticalAlign=middle;resizable=0;points=[];" parent="gwHCqsxIp7rP5MhEEpe_-84" vertex="1" connectable="0">
          <mxGeometry x="0.3524" y="2" relative="1" as="geometry">
            <mxPoint as="offset" />
          </mxGeometry>
        </mxCell>
        <mxCell id="gwHCqsxIp7rP5MhEEpe_-108" value="Authentication Service" style="rounded=0;whiteSpace=wrap;html=1;" parent="1" vertex="1">
          <mxGeometry x="183.52" y="430" width="190" height="80" as="geometry" />
        </mxCell>
        <mxCell id="gwHCqsxIp7rP5MhEEpe_-109" value="MySQL" style="shape=cylinder3;whiteSpace=wrap;html=1;boundedLbl=1;backgroundOutline=1;size=15;" parent="1" vertex="1">
          <mxGeometry x="226.48" y="550" width="60" height="80" as="geometry" />
        </mxCell>
        <mxCell id="gwHCqsxIp7rP5MhEEpe_-110" value="Redis (Cache)" style="shape=cylinder3;whiteSpace=wrap;html=1;boundedLbl=1;backgroundOutline=1;size=15;" parent="1" vertex="1">
          <mxGeometry x="146.48" y="550" width="60" height="80" as="geometry" />
        </mxCell>
        <mxCell id="gwHCqsxIp7rP5MhEEpe_-111" value="MySQL" style="shape=cylinder3;whiteSpace=wrap;html=1;boundedLbl=1;backgroundOutline=1;size=15;" parent="1" vertex="1">
          <mxGeometry x="236.47999999999996" y="560" width="60" height="80" as="geometry" />
        </mxCell>
        <mxCell id="gwHCqsxIp7rP5MhEEpe_-112" value="Redis (Cache)" style="shape=cylinder3;whiteSpace=wrap;html=1;boundedLbl=1;backgroundOutline=1;size=15;" parent="1" vertex="1">
          <mxGeometry x="156.48" y="560" width="60" height="80" as="geometry" />
        </mxCell>
        <mxCell id="gwHCqsxIp7rP5MhEEpe_-113" value="MySQL (Read Replica)" style="shape=cylinder3;whiteSpace=wrap;html=1;boundedLbl=1;backgroundOutline=1;size=15;" parent="1" vertex="1">
          <mxGeometry x="246.47999999999996" y="570" width="60" height="80" as="geometry" />
        </mxCell>
        <mxCell id="gwHCqsxIp7rP5MhEEpe_-114" value="Redis (Cache)" style="shape=cylinder3;whiteSpace=wrap;html=1;boundedLbl=1;backgroundOutline=1;size=15;" parent="1" vertex="1">
          <mxGeometry x="166.48" y="570" width="60" height="80" as="geometry" />
        </mxCell>
        <mxCell id="gwHCqsxIp7rP5MhEEpe_-115" value="1" style="endArrow=classic;startArrow=classic;html=1;rounded=0;exitX=0.7;exitY=0;exitDx=0;exitDy=0;exitPerimeter=0;entryX=0.25;entryY=1;entryDx=0;entryDy=0;" parent="1" source="gwHCqsxIp7rP5MhEEpe_-110" edge="1">
          <mxGeometry width="50" height="50" relative="1" as="geometry">
            <mxPoint x="646.48" y="400" as="sourcePoint" />
            <mxPoint x="196.48" y="510" as="targetPoint" />
          </mxGeometry>
        </mxCell>
        <mxCell id="gwHCqsxIp7rP5MhEEpe_-116" value="1" style="endArrow=classic;startArrow=classic;html=1;rounded=0;exitX=0.855;exitY=0;exitDx=0;exitDy=4.35;exitPerimeter=0;entryX=0.392;entryY=1.033;entryDx=0;entryDy=0;entryPerimeter=0;" parent="1" source="gwHCqsxIp7rP5MhEEpe_-109" edge="1">
          <mxGeometry width="50" height="50" relative="1" as="geometry">
            <mxPoint x="646.48" y="490" as="sourcePoint" />
            <mxPoint x="363.5199999999999" y="511.98" as="targetPoint" />
          </mxGeometry>
        </mxCell>
        <mxCell id="gwHCqsxIp7rP5MhEEpe_-117" value="2" style="endArrow=classic;startArrow=classic;html=1;rounded=0;entryX=0.642;entryY=1.017;entryDx=0;entryDy=0;entryPerimeter=0;exitX=0;exitY=0.5;exitDx=0;exitDy=0;exitPerimeter=0;" parent="1" source="gwHCqsxIp7rP5MhEEpe_-113" edge="1">
          <mxGeometry width="50" height="50" relative="1" as="geometry">
            <mxPoint x="646.48" y="490" as="sourcePoint" />
            <mxPoint x="243.51999999999992" y="511.02" as="targetPoint" />
          </mxGeometry>
        </mxCell>
        <mxCell id="gwHCqsxIp7rP5MhEEpe_-118" value="2" style="edgeLabel;html=1;align=center;verticalAlign=middle;resizable=0;points=[];" parent="1" vertex="1" connectable="0">
          <mxGeometry x="282.5171560293515" y="524.3399388184434" as="geometry" />
        </mxCell>
        <mxCell id="gwHCqsxIp7rP5MhEEpe_-119" value="" style="endArrow=classic;startArrow=classic;html=1;rounded=0;exitX=0.443;exitY=0;exitDx=0;exitDy=0;exitPerimeter=0;" parent="1" source="gwHCqsxIp7rP5MhEEpe_-1" target="gwHCqsxIp7rP5MhEEpe_-10" edge="1">
          <mxGeometry width="50" height="50" relative="1" as="geometry">
            <mxPoint x="670" y="270" as="sourcePoint" />
            <mxPoint x="720" y="220" as="targetPoint" />
          </mxGeometry>
        </mxCell>
        <mxCell id="kbgFcAGoHfSZG_7xuQN--1" value="&lt;h1&gt;Functional Requirements&lt;br&gt;&lt;/h1&gt;&lt;p&gt;1. Use Case and its Scope&lt;/p&gt;&lt;p&gt;2.&lt;/p&gt;&lt;p&gt;3.&lt;/p&gt;&lt;p&gt;4.&lt;/p&gt;&lt;p&gt;5.&lt;/p&gt;&lt;p&gt;6.&lt;/p&gt;&lt;p&gt;7.&lt;/p&gt;&lt;p&gt;8.&lt;/p&gt;&lt;p&gt;9.&lt;/p&gt;&lt;p&gt;10.&lt;/p&gt;&lt;p&gt;&lt;br&gt;&lt;/p&gt;" style="text;html=1;strokeColor=none;fillColor=none;spacing=5;spacingTop=-20;whiteSpace=wrap;overflow=hidden;rounded=0;" parent="1" vertex="1">
          <mxGeometry x="-851" y="144" width="650" height="355" as="geometry" />
        </mxCell>
        <mxCell id="kbgFcAGoHfSZG_7xuQN--2" value="&lt;h1&gt;Non-Functional Requirements&lt;br&gt;&lt;/h1&gt;&lt;div&gt;&lt;br&gt;&lt;/div&gt;&lt;div&gt;1. Input Data Protocol (TCP/UDP), Interface -&amp;gt; (REST API | GraphQL | GRPC (Protobuf))&lt;/div&gt;&lt;p&gt;2. Security (Authentication (SessionToken - JWT|UUID) &amp;amp; Authorization - Account-&amp;gt;List&amp;lt;Roles&amp;gt; -&amp;gt; List&amp;lt;Permissions&amp;gt; &amp;amp; Dependency vulnerability, SSL/TLS)&lt;/p&gt;&lt;p&gt;&lt;br&gt;3. Throttling (Client Side, Server Side (API Gateway on AccessToken)) [Rate Limiting (Token Bucket)]&lt;br&gt;&lt;br&gt;4. Configuration Management (AWS Param Store per env | (per brnach, per env) using Git in (K8s ConfigMap, spring-cloud-config))&lt;/p&gt;&lt;p&gt;5. Logging (&amp;nbsp;&amp;nbsp;&lt;/p&gt;(fluentbit-&amp;gt;Kakfka&amp;lt;-connector(Smaza|confluent|teleraf)-&amp;gt;Elasticsearch) | (fluentbit -&amp;gt; cloudwatch&amp;lt;-opensearch&lt;span style=&quot;background-color: initial;&quot;&gt;)&lt;/span&gt;&lt;br&gt;&lt;p&gt;&lt;br&gt;5. Monitoring &amp;amp; Alerting (Observability) metrics -&amp;gt; (Fluentbit-&amp;gt; kafka-&amp;gt; Samza-&amp;gt;Timseseries&amp;lt;-Query-&amp;gt;Rules) | (service&amp;lt;-prometheus&amp;lt;-Query)&lt;br&gt;&lt;br&gt;6. Resilient (Replicas)&lt;br&gt;&lt;/p&gt;&lt;p&gt;7. Fault Tolerent (CircuitBreaker - (FailoverCaches, RateLimiting until AutoScaling, RetrywithExponentialBackoff), Bulkhead (Fail independently))&lt;br&gt;&lt;/p&gt;&lt;p&gt;8. Scalable (Load Balancer -&amp;nbsp;&lt;br&gt;&lt;span style=&quot;background-color: initial;&quot;&gt;&lt;span style=&quot;white-space: pre;&quot;&gt;&#x9;&lt;/span&gt;Static(RoundRobin/ConsistentHashing/WeightedRoundRobin) / &lt;br&gt;&lt;span style=&quot;white-space: pre;&quot;&gt;&#x9;&lt;/span&gt;Dynamic(DynamicRoundRobin/LeastConnection/WeightedResponseTime))&lt;/span&gt;&lt;/p&gt;&lt;p&gt;9. Elasticity (Microservice/Module Scale Up/Down)&lt;br&gt;&lt;/p&gt;&lt;p&gt;10. Low Latency (Cache)&lt;br&gt;&lt;/p&gt;&lt;p&gt;10. Highly/Eventually Consistent&lt;/p&gt;&lt;p&gt;11. Highly Available (Multi-Region Replication&lt;/p&gt;&lt;p&gt;12. Extendibility&lt;br&gt;&lt;/p&gt;&lt;p&gt;13. API (Atomicity, Idempotency (Operation happens only once), OpenAPi Specs (Swagger), Testing (functional testing, postman, curl))&lt;/p&gt;&lt;p&gt;14. Maintainable&lt;/p&gt;&lt;p&gt;&lt;br&gt;&lt;/p&gt;" style="text;html=1;strokeColor=none;fillColor=none;spacing=5;spacingTop=-20;whiteSpace=wrap;overflow=hidden;rounded=0;" parent="1" vertex="1">
          <mxGeometry x="-849" y="510" width="779" height="590" as="geometry" />
        </mxCell>
        <mxCell id="kbgFcAGoHfSZG_7xuQN--3" value="&lt;h1&gt;Design&lt;br&gt;&lt;/h1&gt;&lt;p&gt;1.&lt;/p&gt;" style="text;html=1;strokeColor=none;fillColor=none;spacing=5;spacingTop=-20;whiteSpace=wrap;overflow=hidden;rounded=0;" parent="1" vertex="1">
          <mxGeometry x="-850" y="-40" width="720" height="160" as="geometry" />
        </mxCell>
        <mxCell id="kbgFcAGoHfSZG_7xuQN--4" value="Actor" style="shape=umlActor;verticalLabelPosition=bottom;verticalAlign=top;html=1;outlineConnect=0;" parent="1" vertex="1">
          <mxGeometry x="-130" y="210" width="30" height="60" as="geometry" />
        </mxCell>
        <mxCell id="kbgFcAGoHfSZG_7xuQN--5" value="Actor" style="shape=umlActor;verticalLabelPosition=bottom;verticalAlign=top;html=1;outlineConnect=0;" parent="1" vertex="1">
          <mxGeometry x="-130" y="350" width="30" height="60" as="geometry" />
        </mxCell>
        <mxCell id="kbgFcAGoHfSZG_7xuQN--6" value="Actor" style="shape=umlActor;verticalLabelPosition=bottom;verticalAlign=top;html=1;outlineConnect=0;" parent="1" vertex="1">
          <mxGeometry x="-130" y="85" width="30" height="60" as="geometry" />
        </mxCell>
        <mxCell id="kbgFcAGoHfSZG_7xuQN--11" value="Configuration Management" style="rounded=0;whiteSpace=wrap;html=1;" parent="1" vertex="1">
          <mxGeometry x="850" y="-300" width="120" height="60" as="geometry" />
        </mxCell>
        <mxCell id="kbgFcAGoHfSZG_7xuQN--12" value="Configuration Management" style="rounded=0;whiteSpace=wrap;html=1;" parent="1" vertex="1">
          <mxGeometry x="860" y="-290" width="120" height="60" as="geometry" />
        </mxCell>
        <mxCell id="kbgFcAGoHfSZG_7xuQN--13" value="Configuration Management" style="rounded=0;whiteSpace=wrap;html=1;" parent="1" vertex="1">
          <mxGeometry x="870" y="-280" width="120" height="60" as="geometry" />
        </mxCell>
        <mxCell id="kbgFcAGoHfSZG_7xuQN--14" value="" style="endArrow=classic;startArrow=classic;html=1;rounded=0;entryX=0.443;entryY=1.014;entryDx=0;entryDy=0;entryPerimeter=0;" parent="1" source="gwHCqsxIp7rP5MhEEpe_-108" target="gwHCqsxIp7rP5MhEEpe_-8" edge="1">
          <mxGeometry width="50" height="50" relative="1" as="geometry">
            <mxPoint x="600" y="470" as="sourcePoint" />
            <mxPoint x="650" y="420" as="targetPoint" />
          </mxGeometry>
        </mxCell>
        <mxCell id="kbgFcAGoHfSZG_7xuQN--94" value="&lt;h1&gt;Capacity Estimations &amp;amp; Assumptions&lt;br&gt;&lt;/h1&gt;&lt;p&gt;1. Total Users:&lt;br&gt;DAU: &lt;br&gt;&lt;br&gt;&lt;/p&gt;&lt;p&gt;2. Read::Write: ::&lt;br&gt;&lt;br&gt;&lt;/p&gt;&lt;p&gt;3. Requests/sec:&lt;br&gt;&lt;br&gt;&lt;br&gt; 4. Storage:&lt;br&gt;&lt;br&gt; &lt;/p&gt;&lt;p&gt;5.Memory:&lt;br&gt;Cache:&lt;br&gt;&lt;br&gt;&lt;/p&gt;&lt;p&gt;5. Bandwidth:&lt;br&gt;Incoming:&lt;br&gt;Outgoing&lt;/p&gt;&lt;p&gt;&lt;br&gt;6: Compute:&lt;/p&gt;&lt;p&gt;&amp;nbsp;Nodes * 3(ReplicasForResiliency) * 3 (MultiRegionReplicasForHighAvailability)&lt;br&gt;&lt;/p&gt;" style="text;html=1;strokeColor=none;fillColor=none;spacing=5;spacingTop=-20;whiteSpace=wrap;overflow=hidden;rounded=0;" parent="1" vertex="1">
          <mxGeometry x="-851" y="1120" width="630" height="540" as="geometry" />
        </mxCell>
        <mxCell id="kb_eebOLBFyuU_Tj5Dm--1" value="API Gateway" style="rounded=0;whiteSpace=wrap;html=1;" parent="1" vertex="1">
          <mxGeometry x="156.48" y="1920" width="143.52" height="120" as="geometry" />
        </mxCell>
        <mxCell id="kb_eebOLBFyuU_Tj5Dm--2" value="" style="rounded=0;whiteSpace=wrap;html=1;" parent="1" vertex="1">
          <mxGeometry x="435" y="1760" width="305" height="650" as="geometry" />
        </mxCell>
        <mxCell id="kb_eebOLBFyuU_Tj5Dm--3" value="" style="rounded=0;whiteSpace=wrap;html=1;" parent="1" vertex="1">
          <mxGeometry x="770" y="1760" width="1100" height="650" as="geometry" />
        </mxCell>
        <mxCell id="kb_eebOLBFyuU_Tj5Dm--4" value="Process API" style="text;html=1;strokeColor=none;fillColor=none;align=center;verticalAlign=middle;whiteSpace=wrap;rounded=0;" parent="1" vertex="1">
          <mxGeometry x="435" y="1760" width="100" height="30" as="geometry" />
        </mxCell>
        <mxCell id="kb_eebOLBFyuU_Tj5Dm--5" value="System API" style="text;html=1;strokeColor=none;fillColor=none;align=center;verticalAlign=middle;whiteSpace=wrap;rounded=0;" parent="1" vertex="1">
          <mxGeometry x="780" y="1770" width="90" height="30" as="geometry" />
        </mxCell>
        <mxCell id="kb_eebOLBFyuU_Tj5Dm--7" value="Merchant Onboarding API&lt;br&gt;- Check duplicate&lt;br&gt;&lt;div&gt;- Fraud Analysis&lt;/div&gt;&lt;div&gt;- Create Merchant&lt;br&gt;&lt;/div&gt;" style="rounded=0;whiteSpace=wrap;html=1;" parent="1" vertex="1">
          <mxGeometry x="455" y="1810" width="255" height="70" as="geometry" />
        </mxCell>
        <mxCell id="kb_eebOLBFyuU_Tj5Dm--8" value="Payment Process API&lt;br&gt;&lt;div&gt;- Fraud Analysis (Check Device Details)&lt;/div&gt;&lt;div&gt;- Order Management (Create Order)&lt;br&gt;- Merchant Service - Check if merchant is active&lt;br&gt;- payment Processor mathcing service&lt;br&gt;- payment service&lt;br&gt;&lt;/div&gt;" style="rounded=0;whiteSpace=wrap;html=1;" parent="1" vertex="1">
          <mxGeometry x="456" y="1920" width="264" height="120" as="geometry" />
        </mxCell>
        <mxCell id="kb_eebOLBFyuU_Tj5Dm--9" value="Fraud Analysis" style="rounded=0;whiteSpace=wrap;html=1;" parent="1" vertex="1">
          <mxGeometry x="825" y="1930" width="210" height="80" as="geometry" />
        </mxCell>
        <mxCell id="kb_eebOLBFyuU_Tj5Dm--10" value="Order management" style="rounded=0;whiteSpace=wrap;html=1;" parent="1" vertex="1">
          <mxGeometry x="825" y="1820" width="205" height="60" as="geometry" />
        </mxCell>
        <mxCell id="kb_eebOLBFyuU_Tj5Dm--11" value="Databases.NoSQL (Cassandra/&lt;br&gt;Elasticseach)" style="shape=cylinder3;whiteSpace=wrap;html=1;boundedLbl=1;backgroundOutline=1;size=15;" parent="1" vertex="1">
          <mxGeometry x="1085" y="1930" width="60" height="80" as="geometry" />
        </mxCell>
        <mxCell id="kb_eebOLBFyuU_Tj5Dm--12" value="Merchant Service" style="rounded=0;whiteSpace=wrap;html=1;" parent="1" vertex="1">
          <mxGeometry x="820" y="2060" width="220" height="90" as="geometry" />
        </mxCell>
        <mxCell id="kb_eebOLBFyuU_Tj5Dm--13" value="RDBMS" style="shape=cylinder3;whiteSpace=wrap;html=1;boundedLbl=1;backgroundOutline=1;size=15;" parent="1" vertex="1">
          <mxGeometry x="1090" y="2065" width="60" height="80" as="geometry" />
        </mxCell>
        <mxCell id="kb_eebOLBFyuU_Tj5Dm--14" value="Processor Matching Service &lt;br&gt;(Match with Payment Processor bank,&lt;br&gt;Achieve Resilliency)" style="rounded=0;whiteSpace=wrap;html=1;" parent="1" vertex="1">
          <mxGeometry x="825" y="2210" width="215" height="70" as="geometry" />
        </mxCell>
        <mxCell id="kb_eebOLBFyuU_Tj5Dm--15" value="UnderWriting (KYC)" style="rounded=0;whiteSpace=wrap;html=1;" parent="1" vertex="1">
          <mxGeometry x="1290" y="1820" width="210" height="70" as="geometry" />
        </mxCell>
        <mxCell id="kb_eebOLBFyuU_Tj5Dm--16" value="Notification Service" style="rounded=0;whiteSpace=wrap;html=1;" parent="1" vertex="1">
          <mxGeometry x="1290" y="1950" width="220" height="70" as="geometry" />
        </mxCell>
        <mxCell id="kb_eebOLBFyuU_Tj5Dm--18" value="Payment Service" style="rounded=0;whiteSpace=wrap;html=1;" parent="1" vertex="1">
          <mxGeometry x="1290" y="2090" width="240" height="90" as="geometry" />
        </mxCell>
        <mxCell id="kb_eebOLBFyuU_Tj5Dm--19" value="Document Store" style="rounded=0;whiteSpace=wrap;html=1;" parent="1" vertex="1">
          <mxGeometry x="1565" y="1825" width="120" height="60" as="geometry" />
        </mxCell>
        <mxCell id="kb_eebOLBFyuU_Tj5Dm--20" value="Blob Service" style="rounded=0;whiteSpace=wrap;html=1;" parent="1" vertex="1">
          <mxGeometry x="1730" y="1825" width="120" height="60" as="geometry" />
        </mxCell>
        <mxCell id="kb_eebOLBFyuU_Tj5Dm--21" value="RDBMS" style="shape=cylinder3;whiteSpace=wrap;html=1;boundedLbl=1;backgroundOutline=1;size=15;" parent="1" vertex="1">
          <mxGeometry x="1610" y="2090" width="60" height="80" as="geometry" />
        </mxCell>
        <mxCell id="kb_eebOLBFyuU_Tj5Dm--22" value="Refund / Claim Management" style="rounded=0;whiteSpace=wrap;html=1;" parent="1" vertex="1">
          <mxGeometry x="1290" y="2270" width="240" height="100" as="geometry" />
        </mxCell>
        <mxCell id="kb_eebOLBFyuU_Tj5Dm--24" value="Ledger Balance Service" style="rounded=0;whiteSpace=wrap;html=1;" parent="1" vertex="1">
          <mxGeometry x="830" y="2310" width="210" height="80" as="geometry" />
        </mxCell>
        <mxCell id="kb_eebOLBFyuU_Tj5Dm--25" value="RDBMS" style="shape=cylinder3;whiteSpace=wrap;html=1;boundedLbl=1;backgroundOutline=1;size=15;" parent="1" vertex="1">
          <mxGeometry x="1085" y="2310" width="60" height="80" as="geometry" />
        </mxCell>
        <mxCell id="PAITsjhqFZbdv7n3hjvy-2" value="SQS (Notification service)&amp;nbsp;&lt;br&gt;Notification Queue" style="shape=process;whiteSpace=wrap;html=1;backgroundOutline=1;" parent="1" vertex="1">
          <mxGeometry x="1440" y="1320" width="120" height="60" as="geometry" />
        </mxCell>
        <mxCell id="PAITsjhqFZbdv7n3hjvy-3" value="SNS (PubSub Service A)" style="shape=process;whiteSpace=wrap;html=1;backgroundOutline=1;" parent="1" vertex="1">
          <mxGeometry x="960" y="1170" width="120" height="60" as="geometry" />
        </mxCell>
        <mxCell id="PAITsjhqFZbdv7n3hjvy-4" value="SNS (PubSub Service B)" style="shape=process;whiteSpace=wrap;html=1;backgroundOutline=1;" parent="1" vertex="1">
          <mxGeometry x="960" y="1280" width="120" height="60" as="geometry" />
        </mxCell>
        <mxCell id="PAITsjhqFZbdv7n3hjvy-5" value="SNS (PubSub Service C)" style="shape=process;whiteSpace=wrap;html=1;backgroundOutline=1;" parent="1" vertex="1">
          <mxGeometry x="960" y="1390" width="120" height="60" as="geometry" />
        </mxCell>
        <mxCell id="PAITsjhqFZbdv7n3hjvy-6" value="SNS (PubSub Service D)" style="shape=process;whiteSpace=wrap;html=1;backgroundOutline=1;" parent="1" vertex="1">
          <mxGeometry x="960" y="1510" width="120" height="60" as="geometry" />
        </mxCell>
        <mxCell id="PAITsjhqFZbdv7n3hjvy-9" value="&lt;h1&gt;Domain Event structure that can be handled by notification service&lt;/h1&gt;&lt;div&gt;{&lt;/div&gt;&lt;div&gt;&lt;span style=&quot;white-space: pre;&quot;&gt;&#x9;&lt;/span&gt;&quot;eventName&quot;: &quot;&quot;,&lt;br&gt;&lt;/div&gt;&lt;div&gt;&lt;span style=&quot;white-space: pre;&quot;&gt;&#x9;&lt;/span&gt;&quot;eventType&quot;: &quot;Domain Name&quot;,&lt;br&gt;&lt;span style=&quot;white-space: pre;&quot;&gt;&#x9;&lt;/span&gt;&quot;data&quot;: {&lt;/div&gt;&lt;div&gt;&lt;span style=&quot;white-space: pre;&quot;&gt;&#x9;&lt;/span&gt;}&lt;br&gt;&lt;/div&gt;&lt;div&gt;}&lt;/div&gt;" style="text;html=1;strokeColor=none;fillColor=none;spacing=5;spacingTop=-20;whiteSpace=wrap;overflow=hidden;rounded=0;" parent="1" vertex="1">
          <mxGeometry x="1160" y="1180" width="220" height="330" as="geometry" />
        </mxCell>
        <mxCell id="PAITsjhqFZbdv7n3hjvy-18" value="SQS Notificaiton DLQ" style="shape=process;whiteSpace=wrap;html=1;backgroundOutline=1;" parent="1" vertex="1">
          <mxGeometry x="1410" y="1540" width="120" height="60" as="geometry" />
        </mxCell>
        <mxCell id="PAITsjhqFZbdv7n3hjvy-19" value="Notification Service" style="rounded=0;whiteSpace=wrap;html=1;" parent="1" vertex="1">
          <mxGeometry x="1720" y="1320" width="120" height="60" as="geometry" />
        </mxCell>
        <mxCell id="PAITsjhqFZbdv7n3hjvy-24" value="MySQL" style="shape=cylinder3;whiteSpace=wrap;html=1;boundedLbl=1;backgroundOutline=1;size=15;" parent="1" vertex="1">
          <mxGeometry x="1780" y="1485" width="60" height="80" as="geometry" />
        </mxCell>
        <mxCell id="PAITsjhqFZbdv7n3hjvy-25" value="MySQL (Read Replica)" style="shape=cylinder3;whiteSpace=wrap;html=1;boundedLbl=1;backgroundOutline=1;size=15;" parent="1" vertex="1">
          <mxGeometry x="1800" y="1495" width="60" height="80" as="geometry" />
        </mxCell>
        <mxCell id="PAITsjhqFZbdv7n3hjvy-26" value="List" style="swimlane;fontStyle=0;childLayout=stackLayout;horizontal=1;startSize=30;horizontalStack=0;resizeParent=1;resizeParentMax=0;resizeLast=0;collapsible=1;marginBottom=0;whiteSpace=wrap;html=1;" parent="1" vertex="1">
          <mxGeometry x="1750" y="1585" width="140" height="170" as="geometry" />
        </mxCell>
        <mxCell id="PAITsjhqFZbdv7n3hjvy-27" value="event_name" style="text;strokeColor=none;fillColor=none;align=left;verticalAlign=middle;spacingLeft=4;spacingRight=4;overflow=hidden;points=[[0,0.5],[1,0.5]];portConstraint=eastwest;rotatable=0;whiteSpace=wrap;html=1;" parent="PAITsjhqFZbdv7n3hjvy-26" vertex="1">
          <mxGeometry y="30" width="140" height="30" as="geometry" />
        </mxCell>
        <mxCell id="PAITsjhqFZbdv7n3hjvy-28" value="event_type" style="text;strokeColor=none;fillColor=none;align=left;verticalAlign=middle;spacingLeft=4;spacingRight=4;overflow=hidden;points=[[0,0.5],[1,0.5]];portConstraint=eastwest;rotatable=0;whiteSpace=wrap;html=1;" parent="PAITsjhqFZbdv7n3hjvy-26" vertex="1">
          <mxGeometry y="60" width="140" height="30" as="geometry" />
        </mxCell>
        <mxCell id="PAITsjhqFZbdv7n3hjvy-29" value="template" style="text;strokeColor=none;fillColor=none;align=left;verticalAlign=middle;spacingLeft=4;spacingRight=4;overflow=hidden;points=[[0,0.5],[1,0.5]];portConstraint=eastwest;rotatable=0;whiteSpace=wrap;html=1;" parent="PAITsjhqFZbdv7n3hjvy-26" vertex="1">
          <mxGeometry y="90" width="140" height="30" as="geometry" />
        </mxCell>
        <mxCell id="PAITsjhqFZbdv7n3hjvy-30" value="notification_type {EMAIL, SMS&amp;lt; APN, FCM}" style="text;strokeColor=none;fillColor=none;align=left;verticalAlign=middle;spacingLeft=4;spacingRight=4;overflow=hidden;points=[[0,0.5],[1,0.5]];portConstraint=eastwest;rotatable=0;whiteSpace=wrap;html=1;" parent="PAITsjhqFZbdv7n3hjvy-26" vertex="1">
          <mxGeometry y="120" width="140" height="50" as="geometry" />
        </mxCell>
        <mxCell id="PAITsjhqFZbdv7n3hjvy-31" value="" style="endArrow=classic;startArrow=classic;html=1;rounded=0;entryX=0;entryY=0;entryDx=0;entryDy=27.5;entryPerimeter=0;exitX=0.5;exitY=1;exitDx=0;exitDy=0;" parent="1" source="PAITsjhqFZbdv7n3hjvy-19" target="PAITsjhqFZbdv7n3hjvy-24" edge="1">
          <mxGeometry width="50" height="50" relative="1" as="geometry">
            <mxPoint x="1440" y="1400" as="sourcePoint" />
            <mxPoint x="1490" y="1350" as="targetPoint" />
          </mxGeometry>
        </mxCell>
        <mxCell id="PAITsjhqFZbdv7n3hjvy-32" value="" style="endArrow=classic;startArrow=classic;html=1;rounded=0;exitX=1;exitY=0.5;exitDx=0;exitDy=0;" parent="1" source="PAITsjhqFZbdv7n3hjvy-6" edge="1">
          <mxGeometry width="50" height="50" relative="1" as="geometry">
            <mxPoint x="1440" y="1400" as="sourcePoint" />
            <mxPoint x="1440" y="1370" as="targetPoint" />
          </mxGeometry>
        </mxCell>
        <mxCell id="PAITsjhqFZbdv7n3hjvy-33" value="Subscription" style="text;html=1;strokeColor=none;fillColor=none;align=center;verticalAlign=middle;whiteSpace=wrap;rounded=0;" parent="1" vertex="1">
          <mxGeometry x="1270" y="1430" width="60" height="30" as="geometry" />
        </mxCell>
        <mxCell id="PAITsjhqFZbdv7n3hjvy-34" value="" style="endArrow=classic;startArrow=classic;html=1;rounded=0;entryX=0;entryY=0.75;entryDx=0;entryDy=0;" parent="1" source="PAITsjhqFZbdv7n3hjvy-39" target="PAITsjhqFZbdv7n3hjvy-2" edge="1">
          <mxGeometry width="50" height="50" relative="1" as="geometry">
            <mxPoint x="1090" y="1550" as="sourcePoint" />
            <mxPoint x="1500" y="1360" as="targetPoint" />
          </mxGeometry>
        </mxCell>
        <mxCell id="PAITsjhqFZbdv7n3hjvy-35" value="" style="endArrow=classic;startArrow=classic;html=1;rounded=0;exitX=1;exitY=0.617;exitDx=0;exitDy=0;exitPerimeter=0;entryX=0;entryY=0.5;entryDx=0;entryDy=0;" parent="1" source="PAITsjhqFZbdv7n3hjvy-4" target="PAITsjhqFZbdv7n3hjvy-2" edge="1">
          <mxGeometry width="50" height="50" relative="1" as="geometry">
            <mxPoint x="1440" y="1400" as="sourcePoint" />
            <mxPoint x="1490" y="1350" as="targetPoint" />
          </mxGeometry>
        </mxCell>
        <mxCell id="PAITsjhqFZbdv7n3hjvy-37" value="Subscription" style="text;html=1;strokeColor=none;fillColor=none;align=center;verticalAlign=middle;whiteSpace=wrap;rounded=0;" parent="1" vertex="1">
          <mxGeometry x="1340" y="1320" width="60" height="30" as="geometry" />
        </mxCell>
        <mxCell id="PAITsjhqFZbdv7n3hjvy-40" value="" style="endArrow=classic;startArrow=classic;html=1;rounded=0;entryX=0;entryY=0.75;entryDx=0;entryDy=0;" parent="1" source="PAITsjhqFZbdv7n3hjvy-5" target="PAITsjhqFZbdv7n3hjvy-39" edge="1">
          <mxGeometry width="50" height="50" relative="1" as="geometry">
            <mxPoint x="1080" y="1412" as="sourcePoint" />
            <mxPoint x="1445" y="1365" as="targetPoint" />
          </mxGeometry>
        </mxCell>
        <mxCell id="PAITsjhqFZbdv7n3hjvy-39" value="Subscription" style="text;html=1;strokeColor=none;fillColor=none;align=center;verticalAlign=middle;whiteSpace=wrap;rounded=0;" parent="1" vertex="1">
          <mxGeometry x="1100" y="1390" width="60" height="30" as="geometry" />
        </mxCell>
        <mxCell id="PAITsjhqFZbdv7n3hjvy-42" value="" style="endArrow=classic;startArrow=classic;html=1;rounded=0;exitX=1;exitY=0.75;exitDx=0;exitDy=0;" parent="1" source="PAITsjhqFZbdv7n3hjvy-3" edge="1">
          <mxGeometry width="50" height="50" relative="1" as="geometry">
            <mxPoint x="1080" y="1215" as="sourcePoint" />
            <mxPoint x="1440" y="1330" as="targetPoint" />
          </mxGeometry>
        </mxCell>
        <mxCell id="PAITsjhqFZbdv7n3hjvy-44" value="Subscription" style="text;html=1;strokeColor=none;fillColor=none;align=center;verticalAlign=middle;whiteSpace=wrap;rounded=0;" parent="1" vertex="1">
          <mxGeometry x="1365" y="1290" width="60" height="30" as="geometry" />
        </mxCell>
        <mxCell id="PAITsjhqFZbdv7n3hjvy-45" value="" style="endArrow=classic;html=1;rounded=0;entryX=0;entryY=0.5;entryDx=0;entryDy=0;exitX=1;exitY=0.5;exitDx=0;exitDy=0;" parent="1" source="PAITsjhqFZbdv7n3hjvy-2" target="PAITsjhqFZbdv7n3hjvy-19" edge="1">
          <mxGeometry width="50" height="50" relative="1" as="geometry">
            <mxPoint x="1440" y="1400" as="sourcePoint" />
            <mxPoint x="1490" y="1350" as="targetPoint" />
          </mxGeometry>
        </mxCell>
        <mxCell id="PAITsjhqFZbdv7n3hjvy-47" value="" style="endArrow=classic;html=1;rounded=0;entryX=0.567;entryY=-0.067;entryDx=0;entryDy=0;entryPerimeter=0;exitX=0.342;exitY=1;exitDx=0;exitDy=0;exitPerimeter=0;" parent="1" source="PAITsjhqFZbdv7n3hjvy-49" target="PAITsjhqFZbdv7n3hjvy-18" edge="1">
          <mxGeometry width="50" height="50" relative="1" as="geometry">
            <mxPoint x="1440" y="1400" as="sourcePoint" />
            <mxPoint x="1490" y="1350" as="targetPoint" />
          </mxGeometry>
        </mxCell>
        <mxCell id="PAITsjhqFZbdv7n3hjvy-48" value="" style="endArrow=classic;html=1;rounded=0;entryX=0.567;entryY=-0.067;entryDx=0;entryDy=0;entryPerimeter=0;exitX=0.342;exitY=1;exitDx=0;exitDy=0;exitPerimeter=0;" parent="1" source="PAITsjhqFZbdv7n3hjvy-2" target="PAITsjhqFZbdv7n3hjvy-49" edge="1">
          <mxGeometry width="50" height="50" relative="1" as="geometry">
            <mxPoint x="1481" y="1380" as="sourcePoint" />
            <mxPoint x="1478" y="1536" as="targetPoint" />
          </mxGeometry>
        </mxCell>
        <mxCell id="PAITsjhqFZbdv7n3hjvy-49" value="Retry: 3" style="text;html=1;strokeColor=none;fillColor=none;align=center;verticalAlign=middle;whiteSpace=wrap;rounded=0;" parent="1" vertex="1">
          <mxGeometry x="1450" y="1455" width="60" height="30" as="geometry" />
        </mxCell>
        <mxCell id="PAITsjhqFZbdv7n3hjvy-51" value="Notification Service" style="rounded=0;whiteSpace=wrap;html=1;" parent="1" vertex="1">
          <mxGeometry x="1730" y="1330" width="120" height="60" as="geometry" />
        </mxCell>
        <mxCell id="PAITsjhqFZbdv7n3hjvy-52" value="Notification Service" style="rounded=0;whiteSpace=wrap;html=1;" parent="1" vertex="1">
          <mxGeometry x="1740" y="1340" width="120" height="60" as="geometry" />
        </mxCell>
        <mxCell id="PAITsjhqFZbdv7n3hjvy-53" value="" style="endArrow=classic;html=1;rounded=0;exitX=1.008;exitY=0.65;exitDx=0;exitDy=0;exitPerimeter=0;entryX=-0.05;entryY=0.633;entryDx=0;entryDy=0;entryPerimeter=0;" parent="1" source="PAITsjhqFZbdv7n3hjvy-2" target="PAITsjhqFZbdv7n3hjvy-51" edge="1">
          <mxGeometry width="50" height="50" relative="1" as="geometry">
            <mxPoint x="1690" y="1400" as="sourcePoint" />
            <mxPoint x="1740" y="1350" as="targetPoint" />
          </mxGeometry>
        </mxCell>
        <mxCell id="PAITsjhqFZbdv7n3hjvy-54" value="" style="endArrow=classic;html=1;rounded=0;exitX=0.992;exitY=0.883;exitDx=0;exitDy=0;exitPerimeter=0;entryX=0;entryY=0.75;entryDx=0;entryDy=0;" parent="1" source="PAITsjhqFZbdv7n3hjvy-2" target="PAITsjhqFZbdv7n3hjvy-52" edge="1">
          <mxGeometry width="50" height="50" relative="1" as="geometry">
            <mxPoint x="1690" y="1400" as="sourcePoint" />
            <mxPoint x="1740" y="1350" as="targetPoint" />
          </mxGeometry>
        </mxCell>
        <mxCell id="PAITsjhqFZbdv7n3hjvy-55" value="Email Worker" style="rounded=0;whiteSpace=wrap;html=1;" parent="1" vertex="1">
          <mxGeometry x="2540" y="1125" width="120" height="60" as="geometry" />
        </mxCell>
        <mxCell id="PAITsjhqFZbdv7n3hjvy-56" value="SMS Worker" style="rounded=0;whiteSpace=wrap;html=1;" parent="1" vertex="1">
          <mxGeometry x="2540" y="1255" width="120" height="60" as="geometry" />
        </mxCell>
        <mxCell id="PAITsjhqFZbdv7n3hjvy-57" value="APN Worker" style="rounded=0;whiteSpace=wrap;html=1;" parent="1" vertex="1">
          <mxGeometry x="2540" y="1385" width="120" height="60" as="geometry" />
        </mxCell>
        <mxCell id="PAITsjhqFZbdv7n3hjvy-58" value="FCM Worker" style="rounded=0;whiteSpace=wrap;html=1;" parent="1" vertex="1">
          <mxGeometry x="2540" y="1505" width="120" height="60" as="geometry" />
        </mxCell>
        <mxCell id="PAITsjhqFZbdv7n3hjvy-59" value="Email Worker" style="rounded=0;whiteSpace=wrap;html=1;" parent="1" vertex="1">
          <mxGeometry x="2550" y="1135" width="120" height="60" as="geometry" />
        </mxCell>
        <mxCell id="PAITsjhqFZbdv7n3hjvy-60" value="Email Worker" style="rounded=0;whiteSpace=wrap;html=1;" parent="1" vertex="1">
          <mxGeometry x="2560" y="1145" width="120" height="60" as="geometry" />
        </mxCell>
        <mxCell id="PAITsjhqFZbdv7n3hjvy-62" value="SMS Worker" style="rounded=0;whiteSpace=wrap;html=1;" parent="1" vertex="1">
          <mxGeometry x="2550" y="1265" width="120" height="60" as="geometry" />
        </mxCell>
        <mxCell id="PAITsjhqFZbdv7n3hjvy-63" value="SMS Worker" style="rounded=0;whiteSpace=wrap;html=1;" parent="1" vertex="1">
          <mxGeometry x="2560" y="1275" width="120" height="60" as="geometry" />
        </mxCell>
        <mxCell id="PAITsjhqFZbdv7n3hjvy-64" value="APN Worker" style="rounded=0;whiteSpace=wrap;html=1;" parent="1" vertex="1">
          <mxGeometry x="2550" y="1395" width="120" height="60" as="geometry" />
        </mxCell>
        <mxCell id="PAITsjhqFZbdv7n3hjvy-65" value="APN Worker" style="rounded=0;whiteSpace=wrap;html=1;" parent="1" vertex="1">
          <mxGeometry x="2560" y="1405" width="120" height="60" as="geometry" />
        </mxCell>
        <mxCell id="PAITsjhqFZbdv7n3hjvy-66" value="FCM Worker" style="rounded=0;whiteSpace=wrap;html=1;" parent="1" vertex="1">
          <mxGeometry x="2550" y="1515" width="120" height="60" as="geometry" />
        </mxCell>
        <mxCell id="PAITsjhqFZbdv7n3hjvy-67" value="FCM Worker" style="rounded=0;whiteSpace=wrap;html=1;" parent="1" vertex="1">
          <mxGeometry x="2560" y="1525" width="120" height="60" as="geometry" />
        </mxCell>
        <mxCell id="PAITsjhqFZbdv7n3hjvy-68" value="SQS Email Notification Queue" style="shape=process;whiteSpace=wrap;html=1;backgroundOutline=1;" parent="1" vertex="1">
          <mxGeometry x="2240" y="1135" width="120" height="60" as="geometry" />
        </mxCell>
        <mxCell id="PAITsjhqFZbdv7n3hjvy-69" value="SQS SMS Notification Queue" style="shape=process;whiteSpace=wrap;html=1;backgroundOutline=1;" parent="1" vertex="1">
          <mxGeometry x="2240" y="1260" width="120" height="60" as="geometry" />
        </mxCell>
        <mxCell id="PAITsjhqFZbdv7n3hjvy-70" value="SQS APN Notification Queue" style="shape=process;whiteSpace=wrap;html=1;backgroundOutline=1;" parent="1" vertex="1">
          <mxGeometry x="2240" y="1405" width="120" height="60" as="geometry" />
        </mxCell>
        <mxCell id="PAITsjhqFZbdv7n3hjvy-87" style="edgeStyle=orthogonalEdgeStyle;rounded=0;orthogonalLoop=1;jettySize=auto;html=1;exitX=1;exitY=0.5;exitDx=0;exitDy=0;" parent="1" source="PAITsjhqFZbdv7n3hjvy-71" target="PAITsjhqFZbdv7n3hjvy-67" edge="1">
          <mxGeometry relative="1" as="geometry" />
        </mxCell>
        <mxCell id="PAITsjhqFZbdv7n3hjvy-71" value="SQS (FCm Notificaiton Queue)" style="shape=process;whiteSpace=wrap;html=1;backgroundOutline=1;" parent="1" vertex="1">
          <mxGeometry x="2240" y="1525" width="120" height="60" as="geometry" />
        </mxCell>
        <mxCell id="PAITsjhqFZbdv7n3hjvy-72" value="" style="endArrow=classic;html=1;rounded=0;exitX=0.933;exitY=-0.067;exitDx=0;exitDy=0;exitPerimeter=0;entryX=0.667;entryY=1.033;entryDx=0;entryDy=0;entryPerimeter=0;" parent="1" source="PAITsjhqFZbdv7n3hjvy-18" target="PAITsjhqFZbdv7n3hjvy-2" edge="1">
          <mxGeometry width="50" height="50" relative="1" as="geometry">
            <mxPoint x="1690" y="1400" as="sourcePoint" />
            <mxPoint x="1740" y="1350" as="targetPoint" />
          </mxGeometry>
        </mxCell>
        <mxCell id="PAITsjhqFZbdv7n3hjvy-73" value="Redrive: 1hour" style="text;html=1;strokeColor=none;fillColor=none;align=center;verticalAlign=middle;whiteSpace=wrap;rounded=0;" parent="1" vertex="1">
          <mxGeometry x="1520" y="1450" width="60" height="30" as="geometry" />
        </mxCell>
        <mxCell id="PAITsjhqFZbdv7n3hjvy-74" value="SNS (Notificaton Topic)" style="shape=process;whiteSpace=wrap;html=1;backgroundOutline=1;" parent="1" vertex="1">
          <mxGeometry x="1960" y="1330" width="120" height="60" as="geometry" />
        </mxCell>
        <mxCell id="PAITsjhqFZbdv7n3hjvy-75" value="" style="endArrow=classic;html=1;rounded=0;entryX=0;entryY=0.25;entryDx=0;entryDy=0;exitX=1;exitY=0;exitDx=0;exitDy=0;" parent="1" source="PAITsjhqFZbdv7n3hjvy-19" target="PAITsjhqFZbdv7n3hjvy-74" edge="1">
          <mxGeometry width="50" height="50" relative="1" as="geometry">
            <mxPoint x="1770" y="1330" as="sourcePoint" />
            <mxPoint x="1820" y="1280" as="targetPoint" />
          </mxGeometry>
        </mxCell>
        <mxCell id="PAITsjhqFZbdv7n3hjvy-76" value="" style="endArrow=classic;html=1;rounded=0;entryX=0;entryY=0.5;entryDx=0;entryDy=0;exitX=1;exitY=0;exitDx=0;exitDy=0;" parent="1" source="PAITsjhqFZbdv7n3hjvy-51" target="PAITsjhqFZbdv7n3hjvy-74" edge="1">
          <mxGeometry width="50" height="50" relative="1" as="geometry">
            <mxPoint x="1770" y="1330" as="sourcePoint" />
            <mxPoint x="1820" y="1280" as="targetPoint" />
          </mxGeometry>
        </mxCell>
        <mxCell id="PAITsjhqFZbdv7n3hjvy-77" value="" style="endArrow=classic;html=1;rounded=0;entryX=0;entryY=0.75;entryDx=0;entryDy=0;exitX=1;exitY=0.5;exitDx=0;exitDy=0;" parent="1" source="PAITsjhqFZbdv7n3hjvy-52" target="PAITsjhqFZbdv7n3hjvy-74" edge="1">
          <mxGeometry width="50" height="50" relative="1" as="geometry">
            <mxPoint x="1770" y="1330" as="sourcePoint" />
            <mxPoint x="1820" y="1280" as="targetPoint" />
          </mxGeometry>
        </mxCell>
        <mxCell id="PAITsjhqFZbdv7n3hjvy-78" value="" style="endArrow=classic;startArrow=classic;html=1;rounded=0;exitX=1;exitY=0.25;exitDx=0;exitDy=0;entryX=-0.042;entryY=0.4;entryDx=0;entryDy=0;entryPerimeter=0;" parent="1" source="PAITsjhqFZbdv7n3hjvy-74" target="PAITsjhqFZbdv7n3hjvy-68" edge="1">
          <mxGeometry width="50" height="50" relative="1" as="geometry">
            <mxPoint x="2210" y="1330" as="sourcePoint" />
            <mxPoint x="2260" y="1280" as="targetPoint" />
          </mxGeometry>
        </mxCell>
        <mxCell id="PAITsjhqFZbdv7n3hjvy-79" value="" style="endArrow=classic;startArrow=classic;html=1;rounded=0;entryX=0;entryY=0.5;entryDx=0;entryDy=0;" parent="1" source="PAITsjhqFZbdv7n3hjvy-74" target="PAITsjhqFZbdv7n3hjvy-69" edge="1">
          <mxGeometry width="50" height="50" relative="1" as="geometry">
            <mxPoint x="2210" y="1330" as="sourcePoint" />
            <mxPoint x="2260" y="1280" as="targetPoint" />
          </mxGeometry>
        </mxCell>
        <mxCell id="PAITsjhqFZbdv7n3hjvy-80" value="" style="endArrow=classic;startArrow=classic;html=1;rounded=0;exitX=1.017;exitY=0.617;exitDx=0;exitDy=0;exitPerimeter=0;entryX=0;entryY=0;entryDx=0;entryDy=0;" parent="1" source="PAITsjhqFZbdv7n3hjvy-74" target="PAITsjhqFZbdv7n3hjvy-70" edge="1">
          <mxGeometry width="50" height="50" relative="1" as="geometry">
            <mxPoint x="2210" y="1330" as="sourcePoint" />
            <mxPoint x="2260" y="1280" as="targetPoint" />
          </mxGeometry>
        </mxCell>
        <mxCell id="PAITsjhqFZbdv7n3hjvy-81" value="" style="endArrow=classic;startArrow=classic;html=1;rounded=0;exitX=1.017;exitY=0.617;exitDx=0;exitDy=0;exitPerimeter=0;entryX=0;entryY=0.25;entryDx=0;entryDy=0;" parent="1" target="PAITsjhqFZbdv7n3hjvy-71" edge="1">
          <mxGeometry width="50" height="50" relative="1" as="geometry">
            <mxPoint x="2092" y="1377" as="sourcePoint" />
            <mxPoint x="2250" y="1415" as="targetPoint" />
          </mxGeometry>
        </mxCell>
        <mxCell id="PAITsjhqFZbdv7n3hjvy-82" value="SQS (FCm Notificaiton DLQ)" style="shape=process;whiteSpace=wrap;html=1;backgroundOutline=1;" parent="1" vertex="1">
          <mxGeometry x="2240" y="1640" width="120" height="60" as="geometry" />
        </mxCell>
        <mxCell id="PAITsjhqFZbdv7n3hjvy-84" value="" style="endArrow=classic;html=1;rounded=0;" parent="1" source="PAITsjhqFZbdv7n3hjvy-68" edge="1">
          <mxGeometry width="50" height="50" relative="1" as="geometry">
            <mxPoint x="2420" y="1150" as="sourcePoint" />
            <mxPoint x="2530" y="1160" as="targetPoint" />
          </mxGeometry>
        </mxCell>
        <mxCell id="PAITsjhqFZbdv7n3hjvy-85" value="" style="endArrow=classic;html=1;rounded=0;exitX=1;exitY=0.75;exitDx=0;exitDy=0;" parent="1" source="PAITsjhqFZbdv7n3hjvy-69" edge="1">
          <mxGeometry width="50" height="50" relative="1" as="geometry">
            <mxPoint x="2510" y="1350" as="sourcePoint" />
            <mxPoint x="2560" y="1300" as="targetPoint" />
          </mxGeometry>
        </mxCell>
        <mxCell id="PAITsjhqFZbdv7n3hjvy-86" value="" style="endArrow=classic;html=1;rounded=0;exitX=1;exitY=0.25;exitDx=0;exitDy=0;entryX=0.017;entryY=0.383;entryDx=0;entryDy=0;entryPerimeter=0;" parent="1" source="PAITsjhqFZbdv7n3hjvy-70" target="PAITsjhqFZbdv7n3hjvy-64" edge="1">
          <mxGeometry width="50" height="50" relative="1" as="geometry">
            <mxPoint x="2510" y="1350" as="sourcePoint" />
            <mxPoint x="2560" y="1300" as="targetPoint" />
          </mxGeometry>
        </mxCell>
        <mxCell id="PAITsjhqFZbdv7n3hjvy-88" value="Actor" style="shape=umlActor;verticalLabelPosition=bottom;verticalAlign=top;html=1;outlineConnect=0;" parent="1" vertex="1">
          <mxGeometry x="2960" y="1290" width="30" height="60" as="geometry" />
        </mxCell>
        <mxCell id="HP7ZcGIIdord-jD0LAbB-1" value="&lt;h1&gt;API&lt;/h1&gt;&lt;p&gt;1. Atomicity&lt;/p&gt;&lt;p&gt;2. Idempotency (Operation happens exactly once)&lt;/p&gt;&lt;p&gt;3. Errors (Clear code, Human Readable, Descriptive Error Messages)&lt;/p&gt;&lt;p&gt;4. OpenAPI Specs (Swagger)&lt;/p&gt;&lt;p&gt;5. Testing (Postman, curl)&lt;/p&gt;" style="text;html=1;strokeColor=none;fillColor=none;spacing=5;spacingTop=-20;whiteSpace=wrap;overflow=hidden;rounded=0;" parent="1" vertex="1">
          <mxGeometry x="-855" y="1650" width="430" height="335" as="geometry" />
        </mxCell>
      </root>
    </mxGraphModel>
  </diagram>
</mxfile>
